#!OML:ASF F:\VICON\USERDATA\INSTALL\rory3\rory3.ASF
:FULLY-SPECIFIED
:DEGREES
129
root 0.528803 17.2592 29.6555 -0.142703 4.91667 0.776014
lowerback 15.5587 1.55134 -1.17928
upperback 0.269163 1.77683 -0.80376
thorax -8.46571 0.886933 -0.594649
lowerneck -19.0205 -6.07481 -2.21921
upperneck 15.8515 -8.61311 4.57192
head 8.35411 -3.73233 0.792173
rclavicle -1.56294e-014 -1.59028e-015
rhumerus -41.0495 13.5659 -103.859
rradius 95.9649
rwrist -14.0883
rhand -28.7449 -312.957
rfingers 7.12502
rthumb -2.1053 17.0738
lclavicle -1.56294e-014 -1.59028e-015
lhumerus -60.0743 -5.42826 99.8995
lradius 114.257
lwrist 41.9648
lhand -22.5401 12.1579
lfingers 7.12502
lthumb 3.88718 42.1021
rfemur -15.0668 -3.02649 20.4197
rtibia 98.227
rfoot 13.8456 -7.44308
rtoes 0.31568
lfemur -20.7079 -0.219816 -27.8075
ltibia 44.0458
lfoot -18.639 -6.11508
ltoes 2.3635
130
root 0.524825 17.184 30.1228 0.0983542 4.11789 1.6618
lowerback 15.6318 1.77604 -2.21013
upperback 0.256715 1.86478 -1.05176
thorax -8.54679 0.965716 -0.300587
lowerneck -19.283 -5.99212 -2.26511
upperneck 15.9059 -8.49679 4.62178
head 8.41848 -3.6686 0.823849
rclavicle 3.30231e-014 -3.97569e-015
rhumerus -41.7369 12.9506 -103.936
rradius 94.8374
rwrist -14.5259
rhand -28.8453 -313.364
rfingers 7.12502
rthumb -2.20226 16.6674
lclavicle 3.30231e-014 -3.97569e-015
lhumerus -57.6366 -6.67994 99.9677
lradius 113.412
lwrist 42.7735
lhand -23.5107 13.491
lfingers 7.12502
lthumb 2.94991 43.4503
rfemur -18.3647 -3.0398 18.6962
rtibia 100.611
rfoot 13.4738 -6.85763
rtoes 6.89515
lfemur -18.9886 -0.00229974 -28.9459
ltibia 44.0791
lfoot -20.1976 -3.37416
ltoes 1.68788
131
root 0.528572 17.119 30.5947 0.206582 3.51042 2.54318
lowerback 15.6256 1.91553 -3.06878
upperback 0.26985 1.86878 -1.34941
thorax -8.54841 0.996009 -0.13576
lowerneck -19.1093 -5.93981 -2.40271
upperneck 15.6647 -8.42819 4.88215
head 8.32358 -3.62632 0.948353
rclavicle -5.31749e-015 -2.54444e-014
rhumerus -42.5447 12.2887 -104.001
rradius 93.8566
rwrist -15.4584
rhand -28.6979 -313.861
rfingers 7.12502
rthumb -2.05998 16.1694
lclavicle -5.31749e-015 -2.54444e-014
lhumerus -55.0019 -7.9564 99.8476
lradius 112.129
lwrist 43.1801
lhand -21.5618 11.239
lfingers 7.12502
lthumb 4.83192 41.1639
rfemur -21.2323 -3.28901 16.9947
rtibia 102.457
rfoot 12.4277 -6.17503
rtoes 18.301
lfemur -16.8935 0.116616 -30.0524
ltibia 43.7248
lfoot -21.6458 -1.12104
ltoes -0.646771
132
root 0.544019 17.0684 31.0559 0.0284715 4.13638 3.44909
lowerback 15.8884 1.58103 -3.62671
upperback 0.403741 1.29167 -1.62876
thorax -8.54346 0.733902 0.00771681
lowerneck -18.878 -5.79352 -2.34963
upperneck 15.5228 -8.24204 4.90685
head 8.22782 -3.54077 0.980258
rclavicle 1.85864e-014 -3.97569e-016
rhumerus -43.4381 11.7603 -104.023
rradius 93.0941
rwrist -16.6759
rhand -28.5148 -314.145
rfingers 7.12502
rthumb -1.88311 15.884
lclavicle 1.85864e-014 -3.97569e-016
lhumerus -52.3314 -9.05022 99.6355
lradius 110.851
lwrist 43.623
lhand -20.4674 9.06187
lfingers 7.12502
lthumb 5.88856 38.96
rfemur -23.2787 -4.95806 15.1074
rtibia 103.703
rfoot 10.4911 -5.41459
rtoes 13.94
lfemur -14.5145 -0.803909 -31.1792
ltibia 43.617
lfoot -22.973 0.441207
ltoes -2.09737
133
root 0.561434 17.0177 31.4892 0.0732368 4.57259 3.95531
lowerback 16.3242 1.30776 -3.77394
upperback 0.383612 0.865711 -1.77555
thorax -8.79806 0.534566 0.0221727
lowerneck -19.0401 -5.73109 -2.16461
upperneck 15.7426 -8.16478 4.6428
head 8.30638 -3.51254 0.8674
rclavicle 2.45996e-015 1.78906e-015
rhumerus -44.5515 11.0994 -103.884
rradius 92.8867
rwrist -18.2128
rhand -27.9821 -314.018
rfingers 7.12502
rthumb -1.36859 16.0062
lclavicle 2.45996e-015 1.78906e-015
lhumerus -49.7817 -9.97026 99.4731
lradius 109.62
lwrist 43.9765
lhand -19.535 7.22979
lfingers 7.12502
lthumb 6.7887 37.101
rfemur -25.8751 -6.39025 13.9381
rtibia 104.647
rfoot 9.11986 -4.75294
rtoes 14.831
lfemur -12.6463 -1.96354 -31.8919
ltibia 43.5643
lfoot -23.7605 1.77686
ltoes -2.94442
134
root 0.492257 16.995 31.9241 0.719421 3.26057 1.48133
lowerback 16.0854 1.52912 -2.57272
upperback 0.105294 1.46951 -0.851645
thorax -8.97694 0.797662 0.195369
lowerneck -19.6366 -5.72472 -2.17817
upperneck 16.0832 -8.16053 4.62126
head 8.52446 -3.49416 0.84441
rclavicle -5.01931e-015 1.76918e-014
rhumerus -45.6282 10.5382 -103.723
rradius 93.1242
rwrist -19.6065
rhand -27.4946 -314.347
rfingers 7.12502
rthumb -0.897832 15.6754
lclavicle -5.01931e-015 1.76918e-014
lhumerus -47.1374 -10.5483 99.2165
lradius 108.374
lwrist 44.1476
lhand -18.3891 5.10374
lfingers 7.12502
lthumb 7.89477 34.9363
rfemur -30.7236 -5.42967 17.9646
rtibia 105.257
rfoot 9.7147 -5.85046
rtoes 5.91731
lfemur -12.3969 -1.63095 -28.7931
ltibia 43.7657
lfoot -24.2001 2.32863
ltoes -3.13145
135
root 0.477065 17.0103 32.399 0.751068 3.15085 1.01495
lowerback 16.0322 1.37552 -2.47687
upperback 0.158216 1.31447 -0.545692
thorax -8.89003 0.725745 0.509469
lowerneck -19.7804 -5.64601 -2.27141
upperneck 16.1128 -8.01651 4.57921
head 8.55607 -3.43334 0.860927
rclavicle 5.7896e-015 4.37326e-015
rhumerus -46.767 10.1846 -103.485
rradius 93.5017
rwrist -20.8237
rhand -26.9833 -315.084
rfingers 7.12502
rthumb -0.403947 14.9363
lclavicle 5.7896e-015 4.37326e-015
lhumerus -44.67 -10.8985 98.9091
lradius 107.32
lwrist 44.2479
lhand -18.2352 4.77734
lfingers 7.12502
lthumb 8.04336 34.6043
rfemur -33.5296 -5.75842 18.8031
rtibia 105.056
rfoot 9.68207 -5.86176
rtoes 8.4743
lfemur -10.6039 -1.99258 -28.1545
ltibia 43.5793
lfoot -24.5178 2.09184
ltoes -1.7638
136
root 0.524856 17.0411 32.8502 0.88492 4.14864 1.74858
lowerback 16.3149 0.767244 -2.35278
upperback -0.00783033 0.493732 -0.82922
thorax -9.2022 0.323287 0.321908
lowerneck -19.3458 -5.48832 -2.13554
upperneck 16.1024 -7.81095 4.41836
head 8.45679 -3.35416 0.824087
rclavicle 6.06293e-015 -1.0138e-014
rhumerus -48.1146 9.96599 -103.362
rradius 93.8735
rwrist -22.0345
rhand -26.801 -315.898
rfingers 7.12502
rthumb -0.227931 14.1225
lclavicle 6.06293e-015 -1.0138e-014
lhumerus -42.782 -11.0911 98.5643
lradius 106.628
lwrist 44.2884
lhand -19.5664 6.17206
lfingers 7.12502
lthumb 6.75845 36.0442
rfemur -35.6217 -7.47817 17.6621
rtibia 104.328
rfoot 9.06765 -5.0725
rtoes 4.62709
lfemur -8.54926 -3.18903 -29.0898
ltibia 43.2224
lfoot -24.3581 1.7086
ltoes -2.01081
137
root 0.535834 17.0766 33.3617 1.34267 3.52916 2.02685
lowerback 15.3968 0.752569 -2.7126
upperback -0.0297784 0.437473 -0.846289
thorax -8.70888 0.308037 0.529611
lowerneck -19.3862 -5.3174 -2.1117
upperneck 16.2729 -7.57743 4.34623
head 8.50949 -3.24622 0.82494
rclavicle 9.69075e-016 5.86415e-015
rhumerus -49.067 10.0017 -103.205
rradius 94.1804
rwrist -23.2703
rhand -26.5834 -316.359
rfingers 7.12502
rthumb -0.0177373 13.6615
lclavicle 9.69075e-016 5.86415e-015
lhumerus -40.9546 -10.8937 98.2264
lradius 106.27
lwrist 44.4498
lhand -20.4919 7.32822
lfingers 7.12502
lthumb 5.86491 37.2271
rfemur -38.1589 -7.25209 17.6907
rtibia 103.17
rfoot 8.3498 -4.97492
rtoes 3.34939
lfemur -6.77739 -3.00886 -29.3957
ltibia 42.4022
lfoot -23.4949 1.29688
ltoes -5.22028
138
root 0.519501 17.1256 33.8218 1.55314 4.22778 2.02067
lowerback 15.5996 0.260014 -2.86418
upperback -0.0562115 -0.233145 -0.648154
thorax -8.83015 -0.00102945 0.980398
lowerneck -19.8537 -5.13082 -2.23004
upperneck 16.4967 -7.28463 4.30635
head 8.65977 -3.10736 0.857621
rclavicle 1.73937e-016 -1.50082e-014
rhumerus -49.812 10.2967 -103.021
rradius 94.5054
rwrist -24.4234
rhand -26.298 -316.633
rfingers 7.12502
rthumb 0.257959 13.3877
lclavicle 1.73937e-016 -1.50082e-014
lhumerus -39.1501 -10.3286 97.8952
lradius 106.154
lwrist 44.869
lhand -20.4237 6.58062
lfingers 7.12502
lthumb 5.93072 36.4776
rfemur -40.0949 -8.23064 18.2135
rtibia 101.5
rfoot 7.63926 -5.13605
rtoes 4.85733
lfemur -5.06041 -3.58507 -29.2256
ltibia 41.5068
lfoot -22.021 0.586635
ltoes -11.381
